<svg xmlns="http://www.w3.org/2000/svg" width="1169" height="228" viewBox="0 0 1169 228" fill="none"><path fill-rule="evenodd" clip-rule="evenodd" d="M142.1 60.8L119 169.8C113.1 198 111.3 214.3 113.9 225.4H68.8L79.7 173.9C66.2 209.8 46.1 227.5 26 227.5C8.3 227.5 0 214.7 0 194.4C0 160 29.5 112.1 78 112.1C82.7 112.1 87.6 112.3 92.5 112.9C96.4 94.6 94.9 79.6 93.4 73.4L142.1 60.8ZM89.9 122.2C84.8 119.2 80.3 117.9 76 117.9C53.4 117.9 39.2 156.2 39.2 180.1C39.2 190.8 42.2 198.5 49.1 198.5C60 198.5 78.2 176.9 89.9 122.2ZM254.6 169.8C248.6 198.1 246.9 214.3 249.4 225.4H204.3L218 160C194 215.6 171.8 227.6 155.6 227.6C139.3 227.6 131.4 216 135.5 196.3L141.2 169.8C147.2 141.6 148.9 125.4 146.4 114.2H191.7L175.7 189.1C174.2 196.6 176.1 200 180.6 200C192.8 200 211.6 167.3 227.6 114.2H266.3L254.6 169.8ZM386.3 169.8C380.3 198.1 378.6 214.3 381.2 225.4H336.1L346.8 175C333.3 210.3 313.4 227.6 293.5 227.6C275.8 227.6 267.4 214.7 267.4 194.4C267.4 160 296.9 112.1 345.5 112.1C360.4 112.1 377.6 115.3 396.4 122.6L386.3 169.8ZM357.4 122.1C352.3 119.1 347.8 117.8 343.5 117.8C320.8 117.8 306.7 156.1 306.7 180.1C306.7 190.7 309.7 198.4 316.6 198.4C327.5 198.4 345.6 176.8 357.4 122.1ZM392.9 214.5L399.1 186C415.1 210.8 426.7 221.1 438.2 221.1C446.1 221.1 452.5 217 452.5 209.6C452.5 189.2 409.8 182.8 409.8 150.1C409.8 127.5 427.3 112.1 455.5 112.1C468.8 112.1 483.1 116.1 492.7 122.3L487.4 148C476.9 130.2 466.9 117.4 454 117.4C445.7 117.4 440.4 121.9 440.4 130C440.4 152.3 483.1 159.5 483.1 190.5C483.1 212.1 464.5 227.3 435.9 227.3C420.9 227.3 404.7 222.4 392.9 214.5ZM816.5 169.8C810.5 198 808.8 214.3 811.4 225.4H766.2L779.9 160C756 215.5 733.7 227.5 717.5 227.5C701.2 227.5 693.3 216 697.4 196.3L703.2 169.8C709.2 141.6 710.9 125.3 708.3 114.2H753.6L737.6 189C736.1 196.5 738 199.9 742.5 199.9C754.7 199.9 773.5 167.2 789.6 114.2H828.2L816.5 169.8ZM1033.1 143.1L1027.4 169.8C1021.4 198 1019.7 214.3 1022.2 225.4H977.1L992.9 150.6C994.7 143.1 992.5 139.7 988.2 139.7C976.1 139.7 957 172.4 941.2 225.4H902.5L918.5 150.6C920 143.1 918.1 139.7 913.6 139.7C901.4 139.7 882.6 172.4 866.6 225.4H827.9L839.6 169.8C845.8 141.6 847.6 125.3 844.8 114.2H890.1L876.4 179C900.1 124 922.6 112.1 938.6 112.1C954.9 112.1 962.8 123.4 958.5 143.1L950.8 179.6C974.6 124 997 112.1 1013 112.1C1029.5 112.1 1037.4 123.4 1033.1 143.1ZM1158.2 169.8C1152.2 198 1150.5 214.3 1153.1 225.4H1108L1118.7 174.9C1105.2 210.2 1085.3 227.5 1065.4 227.5C1047.7 227.5 1039.3 214.7 1039.3 194.4C1039.3 160 1068.8 112.1 1117.4 112.1C1132.3 112.1 1149.4 115.3 1168.3 122.6L1158.2 169.8ZM1129.3 122.1C1124.2 119.1 1119.7 117.8 1115.4 117.8C1092.7 117.8 1078.6 156.1 1078.6 180C1078.6 190.7 1081.6 198.4 1088.5 198.4C1099.4 198.4 1117.5 176.8 1129.3 122.1Z" fill="white"></path><path fill-rule="evenodd" clip-rule="evenodd" d="M539.6 142.5C551.2 142.5 558.3 147.9 558.3 157.9C558.3 173 547.5 181.1 531.5 181.1H523.6L519.9 201.9H509.1L519.5 142.5H539.6ZM546.8 159.2C546.8 152 541.7 151.2 535.2 151.2H528.9L525.1 172.5H531.6C540.3 172.5 546.8 169.1 546.8 159.2ZM564.1 180.8C564.1 178.1 564.2 174.5 564.9 171.2C568.9 148.3 583.3 141.5 596.1 141.5C608.2 141.5 617 148.3 617 163.3C617 166 616.8 169.4 616.3 172.8C612.8 193.4 601 203 585.1 203C571.8 203 564.1 195.1 564.1 180.8ZM605 172.8C605.2 170.4 605.7 167.7 605.7 165.2C605.7 157.6 603.2 150.7 594.6 150.7C583.9 150.7 578 160.8 576.1 171.6C575.7 174.2 575.4 177.3 575.4 180C575.4 187.7 578 194 587.1 194C597.9 194 603.3 183.7 605 172.8ZM653.2 142.5C665.3 142.5 672.4 146.8 672.4 156.6C672.4 167.5 665.4 172.6 658.7 174.7C661 175.7 661.9 177.2 662.9 180.7L668.9 201.9H657.2L652.2 182.9C651.3 180 650.2 178.3 647 178.3H638.2L634 201.9H623.1L633.5 142.5H653.2ZM661.1 158.3C661.1 152.2 656.7 151.2 650.2 151.2H643L639.6 170.3H648.5C656 170.3 661.1 165.8 661.1 158.3Z" fill="white"></path><path d="M0 10.8L1.70001 1.10001H47.9L46.1 10.8H28.4L19.4 62.1H8.29999L17.2 10.8H0Z" fill="white"></path><path fill-rule="evenodd" clip-rule="evenodd" d="M76.4 1.10001C88.9 1.10001 96.1 5.50001 96.1 15.6C96.1 26.8 88.9 32 82.1 34.1C84.5 35.1 85.4 36.7 86.4 40.3L92.5 62.1H80.5L75.4 42.5C74.5 39.5 73.3 37.8 70.1 37.8H61L56.7 62.1H45.5L56.2 1.10001H76.4ZM84.5 17.2C84.5 11 80 10 73.3 10H65.9L62.4 29.6H71.6C79.3 29.6 84.5 25 84.5 17.2ZM147.6 1.10001L145.9 10.8H120.2L117.6 26.1H139.6L137.8 35.8H115.8L113 52.4H139.2L137.5 62.1H100.1L110.8 1.10001H147.6ZM168.9 1.10001L158.1 62.1H146.9L157.7 1.10001H168.9ZM193.2 1.10001L211.5 43.6H211.6L219 1.10001H230.1L219.4 62.1H208.7L190 19.1H189.8L182.3 62.1H171.2L181.9 1.10001H193.2Z" fill="white"></path><path fill-rule="evenodd" clip-rule="evenodd" d="M271.1 1.10001L281.9 62.1H270.5L267.7 45.9H246.5L238.3 62.1H226.8L258 1.10001H271.1ZM263.2 11.4H263L250.1 37.4H267.1L263.2 11.4ZM315.3 1.10001L323.4 41.1H323.7L346.3 1.10001H358.7L351.3 62.1H340.7L345.8 20.1H345.5L325.2 55.2H316.8L309.3 20.5H309.1L299.4 62.1H288.8L303 1.10001H315.3ZM411 1.10001L409.3 10.9H383.7L381 26.2H403L401.3 35.8H379.3L376.4 52.4H402.6L400.9 62.1H363.5L374.2 1.10001H411ZM432.2 1.10001L450.5 43.6H450.6L458.1 1.10001H469.2L458.4 62.1H447.7L429 19.1H428.8L421.3 62.1H410.2L420.9 1.10001H432.2ZM475.1 10.9L476.8 1.10001H523L521.2 10.9H503.6L494.5 62.1H483.4L492.4 10.9H475.1Z" fill="white"></path><path fill-rule="evenodd" clip-rule="evenodd" d="M519.5 40.3C519.5 37.6 519.7 33.9 520.3 30.5C524.5 7 539.2 0 552.4 0C564.8 0 573.9 7.09999 573.9 22.4C573.9 25.2 573.7 28.7 573.1 32.2C569.6 53.4 557.5 63.2 541 63.2C527.5 63.2 519.5 55.1 519.5 40.3ZM561.5 32.2C561.8 29.7 562.2 27 562.2 24.4C562.2 16.6 559.7 9.39999 550.9 9.39999C539.9 9.39999 533.8 19.8 531.9 30.9C531.4 33.7 531.1 36.8 531.1 39.5C531.1 47.5 533.8 53.9 543.2 53.9C554.3 53.9 559.8 43.4 561.5 32.2Z" fill="white"></path></svg>