<svg xmlns="http://www.w3.org/2000/svg" width="389" height="375" viewBox="0 0 389 375" fill="none"><path d="M0 190.279C0 80.7911 83.8969 0 196.495 0C307.548 0 388.354 80.7911 388.354 190.279C388.354 294.91 307.548 374.156 196.495 374.156C83.8969 374.156 0 294.91 0 190.279Z" fill="white"></path><path d="M40.4023 189.617C40.4023 103.086 106.857 39.0713 196.053 39.0713C283.924 39.0713 347.95 103.086 347.95 189.617C347.95 272.394 283.924 335.085 196.053 335.085C106.857 335.085 40.4023 272.394 40.4023 189.617Z" fill="#201C3C"></path><path d="M151.678 282.99C220.562 255.176 285.03 192.707 285.03 145.91C285.03 124.719 271.783 116.11 255.224 116.11C233.588 116.11 219.016 133.328 219.016 139.288C219.016 141.274 239.991 145.91 239.991 170.191C239.991 192.707 225.64 220.962 210.406 234.868C204.445 198.005 198.042 160.258 193.185 125.822C192.081 121.187 190.536 121.187 188.107 121.187H128.054C125.626 121.187 122.314 122.07 123.418 127.147L151.678 282.99Z" fill="#5385FF"></path></svg>